<?xml version="1.0" encoding="utf-8"?>
<!-- Generator: Adobe Illustrator 16.0.0, SVG Export Plug-In . SVG Version: 6.00 Build 0)  -->
<!DOCTYPE svg PUBLIC "-//W3C//DTD SVG 1.1//EN" "http://www.w3.org/Graphics/SVG/1.1/DTD/svg11.dtd">
<svg version="1.1" id="Logo" xmlns="http://www.w3.org/2000/svg" xmlns:xlink="http://www.w3.org/1999/xlink" x="0px" y="0px"
	 width="960px" height="560px" viewBox="0 0 960 560" enable-background="new 0 0 960 560" xml:space="preserve">
<g>
	<g id="Calque_1_1_">
		<path fill="#29ABE2" stroke="#999999" stroke-miterlimit="10" d="M430.359,391.315
			c-106.136-13.304-183.351-94.503-172.463-181.363c9.632-76.845,84.993-132.366,175.734-134.94C433.253,75.01,432.878,75,432.5,75
			C318.453,75,226,150.664,226,244s92.453,169,206.5,169c77.571,0,145.141-35.012,180.435-86.772
			C574.872,373.633,505.44,400.726,430.359,391.315z"/>
		<path d="M443.2,178.8c-2.34,0.84-6.96,2.22-12.42,2.22c-6.12,0-11.159-1.56-15.119-5.34c-3.479-3.36-5.64-8.76-5.64-15.059
			c0.06-12.06,8.34-20.879,21.898-20.879c4.681,0,8.34,1.02,10.08,1.86l-1.26,4.26c-2.16-0.96-4.86-1.74-8.939-1.74
			c-9.84,0-16.26,6.12-16.26,16.259c0,10.26,6.18,16.319,15.6,16.319c3.42,0,5.761-0.48,6.959-1.08v-12.059h-8.219v-4.2h13.32V178.8
			z"/>
		<path d="M456.4,140.161V180.6h-5.221v-40.438L456.4,140.161L456.4,140.161z"/>
		<path d="M516.279,161.641h-15.722v14.579h17.521v4.38H495.34v-40.438h21.84v4.38h-16.621v12.779h15.722L516.279,161.641
			L516.279,161.641z"/>
		<path d="M524.139,174.24c2.341,1.44,5.761,2.64,9.359,2.64c5.34,0,8.461-2.82,8.461-6.9c0-3.78-2.16-5.94-7.621-8.04
			c-6.6-2.34-10.678-5.76-10.678-11.459c0-6.3,5.219-10.979,13.078-10.979c4.141,0,7.141,0.96,8.938,1.98l-1.438,4.26
			c-1.32-0.72-4.021-1.92-7.681-1.92c-5.52,0-7.618,3.3-7.618,6.06c0,3.78,2.459,5.64,8.038,7.8
			c6.841,2.64,10.32,5.939,10.32,11.879c0,6.24-4.621,11.64-14.16,11.64c-3.899,0-8.159-1.14-10.319-2.58L524.139,174.24z"/>
		<path d="M567.158,140.701c3.18-0.48,6.961-0.84,11.1-0.84c7.5,0,12.84,1.74,16.381,5.04c3.601,3.3,5.699,7.98,5.699,14.52
			c0,6.6-2.041,12-5.82,15.719c-3.778,3.78-10.02,5.82-17.879,5.82c-3.721,0-6.84-0.18-9.479-0.48L567.158,140.701L567.158,140.701z
			 M572.379,176.46c1.32,0.24,3.24,0.3,5.279,0.3c11.16,0,17.219-6.24,17.219-17.159c0.062-9.54-5.34-15.6-16.379-15.6
			c-2.699,0-4.74,0.24-6.119,0.54V176.46L572.379,176.46z"/>
		<path d="M628.057,161.641h-15.719v14.579h17.521v4.38h-22.74v-40.438h21.84v4.38h-16.619v12.779h15.719L628.057,161.641
			L628.057,161.641z"/>
		<path opacity="0.6" fill="#B3B3B3" enable-background="new    " d="M288.261,300.546c6.201,3.815,15.264,6.996,24.804,6.996
			c14.15,0,22.418-7.474,22.418-18.285c0-10.017-5.724-15.74-20.193-21.306c-17.489-6.2-28.301-15.264-28.301-30.368
			c0-16.694,13.833-29.097,34.661-29.097c10.971,0,18.921,2.544,23.69,5.247l-3.816,11.289c-3.498-1.908-10.652-5.088-20.352-5.088
			c-14.627,0-20.192,8.745-20.192,16.059c0,10.017,6.519,14.945,21.306,20.67c18.125,6.995,27.347,15.74,27.347,31.481
			c0,16.534-12.243,30.845-37.523,30.845c-10.335,0-21.624-3.021-27.348-6.837L288.261,300.546z"/>
		<path d="M290.261,295.959c6.201,3.816,15.264,6.996,24.804,6.996c14.15,0,22.418-7.473,22.418-18.285
			c0-10.017-5.724-15.74-20.193-21.306c-17.489-6.2-28.301-15.264-28.301-30.368c0-16.694,13.833-29.097,34.661-29.097
			c10.971,0,18.921,2.544,23.69,5.247l-3.816,11.289c-3.498-1.908-10.652-5.088-20.352-5.088c-14.627,0-20.192,8.745-20.192,16.059
			c0,10.017,6.519,14.945,21.306,20.67c18.125,6.995,27.347,15.74,27.347,31.482c0,16.534-12.243,30.844-37.523,30.844
			c-10.335,0-21.624-3.021-27.348-6.836L290.261,295.959z"/>
		<path opacity="0.6" fill="#B3B3B3" enable-background="new    " d="M382.755,284.691l-11.13,33.708h-14.31l36.41-107.165h16.694
			l36.569,107.165h-14.787l-11.447-33.708H382.755z M417.893,273.881L407.4,243.035c-2.385-6.996-3.976-13.355-5.565-19.557h-0.317
			c-1.59,6.359-3.339,12.879-5.406,19.397l-10.494,31.005L417.893,273.881L417.893,273.881z"/>
		<path d="M386.886,284.691l-11.13,33.708h-14.31l36.41-107.165h16.694l36.569,107.165h-14.787l-11.447-33.708H386.886z
			 M422.024,273.881l-10.494-30.846c-2.385-6.996-3.976-13.355-5.565-19.557h-0.317c-1.59,6.359-3.339,12.879-5.406,19.397
			l-10.494,31.005L422.024,273.881L422.024,273.881z"/>
		<path opacity="0.6" fill="#B3B3B3" enable-background="new    " d="M478.179,317.32L443.2,210.156h14.945l16.694,52.787
			c4.612,14.469,8.586,27.507,11.448,40.067h0.318c3.021-12.402,7.473-25.917,12.241-39.908l18.125-52.946h14.787L493.442,317.32
			H478.179z"/>
		<path d="M481.969,318.399L446.99,211.235h14.946l16.693,52.787c4.612,14.469,8.586,27.507,11.448,40.067h0.317
			c3.021-12.401,7.474-25.917,12.242-39.908l18.125-52.946h14.787l-38.317,107.165H481.969z"/>
		<path opacity="0.6" fill="#B3B3B3" enable-background="new    " d="M633.494,263.705c0,36.887-22.42,56.443-49.769,56.443
			c-28.301,0-48.176-21.941-48.176-54.377c0-34.025,21.146-56.285,49.769-56.285C614.572,209.486,633.494,231.905,633.494,263.705z
			 M550.338,265.453c0,22.896,12.402,43.406,34.187,43.406c21.94,0,34.342-20.192,34.342-44.52
			c0-21.306-11.129-43.565-34.185-43.565C561.785,220.775,550.338,241.922,550.338,265.453z"/>
		<path d="M638.742,263.705c0,36.887-22.42,56.443-49.769,56.443c-28.301,0-48.176-21.941-48.176-54.377
			c0-34.025,21.146-56.285,49.769-56.285C619.82,209.486,638.742,231.905,638.742,263.705z M555.586,265.453
			c0,22.896,12.402,43.406,34.187,43.406c21.94,0,34.342-20.192,34.342-44.52c0-21.306-11.129-43.565-34.185-43.565
			C567.033,220.775,555.586,241.922,555.586,265.453z"/>
		<path opacity="0.6" fill="#B3B3B3" enable-background="new    " d="M668.209,229.667c-0.17,0-0.333-0.011-0.494-0.024
			c-0.113,0.007-0.221,0.024-0.339,0.024c-0.074,0-0.144-0.008-0.216-0.011c-0.041,0.001-0.076,0.011-0.118,0.011
			c-0.038,0-0.072-0.005-0.11-0.005c-0.02,0-0.036,0.005-0.056,0.005c-0.104,0-0.201-0.01-0.301-0.015
			c-0.067,0.003-0.132,0.015-0.199,0.015h-0.167c-0.076,0-0.147-0.02-0.224-0.023c-0.096,0.004-0.18,0.023-0.276,0.023
			c-0.073,0-0.141-0.008-0.213-0.01c-0.042,0-0.078,0.01-0.12,0.01c-0.114,0-0.222-0.01-0.331-0.016
			c-0.058,0.002-0.111,0.016-0.169,0.016h-0.167c-0.078,0-0.15-0.02-0.228-0.023c-0.095,0.004-0.178,0.023-0.272,0.023
			c-0.073,0-0.142-0.008-0.213-0.01c-0.042,0-0.078,0.01-0.12,0.01c-0.11,0-0.213-0.01-0.319-0.016
			c-0.063,0.002-0.116,0.016-0.181,0.016c-0.11,0-0.213-0.01-0.319-0.016c-0.063,0.002-0.116,0.016-0.181,0.016
			c-0.11,0-0.213-0.01-0.319-0.016c-0.063,0.002-0.116,0.016-0.181,0.016c-0.073,0-0.142-0.008-0.214-0.01
			c-0.041,0-0.077,0.01-0.12,0.01c-0.073,0-0.142-0.008-0.213-0.01c-0.042,0-0.078,0.01-0.12,0.01c-0.11,0-0.214-0.01-0.32-0.016
			c-0.063,0.002-0.116,0.016-0.18,0.016c-0.143,0-0.277-0.011-0.414-0.021c-0.086,0.004-0.164,0.021-0.253,0.021
			c-0.162,0-0.316-0.011-0.471-0.023c-0.034,0.002-0.065,0.009-0.101,0.01c-0.405,0.109-0.827,0.179-1.263,0.179h-0.167
			c-0.023,0-0.045-0.007-0.068-0.007c-0.033,0.001-0.063,0.007-0.098,0.007c-0.068,0-0.133-0.007-0.2-0.01
			c-0.046,0.001-0.087,0.01-0.134,0.01c-0.034,0-0.065-0.004-0.1-0.005c-0.023,0-0.043,0.005-0.066,0.005
			c-0.194,0-0.383-0.01-0.565-0.028c-0.09,0.01-0.177,0.028-0.269,0.028h-0.166c-0.147,0-0.289-0.011-0.431-0.021
			c-0.133,0.009-0.266,0.021-0.403,0.021c-0.339,0-0.655-0.033-0.958-0.085v88.651h13.832v-88.78
			C668.688,229.648,668.455,229.667,668.209,229.667z"/>
		<path d="M669.834,229.667c-0.17,0-0.333-0.011-0.494-0.024c-0.113,0.007-0.221,0.024-0.339,0.024
			c-0.074,0-0.144-0.008-0.216-0.011c-0.041,0.001-0.076,0.011-0.118,0.011c-0.038,0-0.072-0.005-0.11-0.005
			c-0.02,0-0.036,0.005-0.056,0.005c-0.104,0-0.201-0.01-0.301-0.015c-0.067,0.003-0.132,0.015-0.199,0.015h-0.167
			c-0.076,0-0.147-0.02-0.224-0.023c-0.096,0.004-0.18,0.023-0.276,0.023c-0.073,0-0.141-0.008-0.213-0.01
			c-0.042,0-0.078,0.01-0.12,0.01c-0.114,0-0.222-0.01-0.331-0.016c-0.058,0.002-0.111,0.016-0.169,0.016h-0.167
			c-0.078,0-0.15-0.02-0.228-0.023c-0.095,0.004-0.178,0.023-0.272,0.023c-0.073,0-0.142-0.008-0.213-0.01
			c-0.042,0-0.078,0.01-0.12,0.01c-0.11,0-0.213-0.01-0.319-0.016c-0.063,0.002-0.116,0.016-0.181,0.016
			c-0.11,0-0.213-0.01-0.319-0.016c-0.063,0.002-0.116,0.016-0.181,0.016c-0.11,0-0.213-0.01-0.319-0.016
			c-0.063,0.002-0.116,0.016-0.181,0.016c-0.073,0-0.142-0.008-0.214-0.01c-0.041,0-0.077,0.01-0.12,0.01
			c-0.073,0-0.142-0.008-0.213-0.01c-0.042,0-0.078,0.01-0.12,0.01c-0.11,0-0.214-0.01-0.32-0.016
			c-0.063,0.002-0.116,0.016-0.18,0.016c-0.143,0-0.277-0.011-0.414-0.021c-0.086,0.004-0.164,0.021-0.253,0.021
			c-0.162,0-0.316-0.011-0.471-0.023c-0.034,0.002-0.065,0.009-0.101,0.01c-0.405,0.109-0.827,0.179-1.263,0.179h-0.167
			c-0.023,0-0.045-0.007-0.068-0.007c-0.033,0.001-0.063,0.007-0.098,0.007c-0.068,0-0.133-0.007-0.2-0.01
			c-0.046,0.001-0.087,0.01-0.134,0.01c-0.034,0-0.065-0.004-0.1-0.005c-0.023,0-0.043,0.005-0.066,0.005
			c-0.194,0-0.383-0.01-0.565-0.028c-0.09,0.01-0.177,0.028-0.269,0.028H658.5c-0.147,0-0.289-0.011-0.431-0.021
			c-0.133,0.009-0.266,0.021-0.403,0.021c-0.339,0-0.655-0.033-0.958-0.085v88.651h13.832v-88.78
			C670.313,229.648,670.08,229.667,669.834,229.667z"/>
		<path opacity="0.5" fill="#B3B3B3" enable-background="new    " d="M746.199,268.156h-41.656v38.637h46.428v11.606h-60.26V211.235
			h57.875v11.607h-44.043v33.866h41.656V268.156z"/>
		<path d="M750.199,268.156h-41.656v38.637h46.428v11.606h-60.26V211.235h57.875v11.607h-44.043v33.866h41.656V268.156z"/>
		<g>
			<path d="M473.631,145.201h-12.299v-4.44h29.938v4.44h-12.359V181.2h-5.28V145.201z"/>
		</g>
	</g>
	<g id="Calque_2">
		<g>
			<rect x="647" y="210" fill="#FF0000" width="15" height="16"/>
			<rect x="666" y="210" fill="#FF0000" width="15" height="16"/>
			<rect x="666" y="190" fill="#FF0000" width="15" height="16"/>
			<rect x="647" y="190" fill="#FF0000" width="15" height="16"/>
		</g>
	</g>
	<g id="Calque_3">
		<path fill="#E6E6E6" stroke="#999999" stroke-miterlimit="10" d="M414.551,211.5h-16.145c-0.081,0.054-0.176,0.092-0.274,0.127
			c-0.032,0.044-0.063,0.089-0.1,0.13c-0.015,0.165-0.043,0.328-0.107,0.479c0.219,1.755,1.146,6.146,4.949,6.146
			c4.75,0,5.521,4.673,8.5,4.559c2.979-0.115,2.97,7.432,6.36,9.762c3.39,2.33,5.494,6.831,6.442,6.888
			C425.124,239.648,414.551,211.5,414.551,211.5z"/>
	</g>
	<g id="Calque_4">
		<g>
			<g>
				<path fill="#603813" d="M444.697,142.949c3.235-4.396,6.471-8.792,9.707-13.188c0.809-1.099-0.782-3.938,0-5
					c-3.235,4.396-6.472,8.792-9.707,13.188C443.888,139.047,445.479,141.886,444.697,142.949L444.697,142.949z"/>
			</g>
		</g>
		<line fill="none" stroke="#8C6239" stroke-width="2" stroke-miterlimit="10" x1="457" y1="127" x2="457" y2="131"/>
		<g>
			<g>
				<path fill="#603813" d="M463.363,137.949c-3.236-4.396-6.472-8.792-9.707-13.188c0.782,1.063-0.81,3.901,0,5
					c3.234,4.396,6.471,8.792,9.707,13.188C462.581,141.886,464.171,139.047,463.363,137.949L463.363,137.949z"/>
			</g>
		</g>
		<path fill="#F2F2F2" stroke="#E6E6E6" stroke-width="0.5" stroke-miterlimit="10" d="M454.031,125.281l-1.797,2.406
			c0,0,0.608,1.125,1.422,1.094c0.813-0.031,0.599,0.765,1.358,1.063c0.761,0.298,0.703,1.156,1.359,1.313
			c0.656,0.157,0.709,0.936,1.375,1.141c1.016,0.313,0.578,0.438,1.047,0.563s0.5-0.375,0.5-0.375L454.031,125.281z"/>
	</g>
	<g id="Calque_5">
	</g>
</g>
</svg>
